#!OML:ASF H:\Not Pregnant\Project 1\Capture day 1\Session 1\non-pregnant.ASF
:FULLY-SPECIFIED
:DEGREES
1648
root -4.51063 15.483 9.74205 -519.449 -84.487 527.116
lowerback 0.384652 2.08687 2.87957
upperback -8.86388 2.55895 -1.61448
thorax -9.37073 0.8296 -3.51699
lowerneck 12.1064 -8.17956 -31.209
upperneck -0.716696 -17.6527 39.4191
head 4.84706 -10.5921 19.6085
rclavicle 8.39865e-015 -3.926e-015
rhumerus -40.9252 -24.9104 -63.3708
rradius 22.3722
rwrist 34.3707
rhand -10.7229 2.45933
rfingers 7.12502
rthumb 15.2874 -26.9557
lclavicle 8.39865e-015 -3.926e-015
lhumerus -44.1986 3.22958 83.2883
lradius 32.797
lwrist 20.7303
lhand -10.9878 -17.0474
lfingers 7.12502
lthumb 15.0323 12.3869
rfemur -17.533 2.08492 -5.68966
rtibia 33.1462
rfoot -17.3357 6.25968
rtoes -40.8503
lfemur -8.28056 -1.13407 4.89396
ltibia 20.2712
lfoot -3.55665 -1.17908
ltoes -45.1804
1649
root -4.52257 15.4907 9.92884 -520.714 -84.5681 528.473
lowerback 0.316531 2.08377 2.94981
upperback -8.86925 2.56383 -1.51602
thorax -9.33733 0.831777 -3.44888
lowerneck 12.1142 -8.21473 -31.1003
upperneck -0.89875 -17.6484 39.4694
head 4.79023 -10.5926 19.6041
rclavicle 2.5345e-015 1.11816e-014
rhumerus -40.9604 -24.965 -63.2875
rradius 22.7341
rwrist 33.8753
rhand -10.7307 2.48914
rfingers 7.12502
rthumb 15.2799 -26.9265
lclavicle 2.5345e-015 1.11816e-014
lhumerus -44.0145 3.01356 83.6979
lradius 32.4138
lwrist 20.479
lhand -11.2398 -17.4078
lfingers 7.12502
lthumb 14.7895 12.0445
rfemur -17.1074 2.61526 -6.26346
rtibia 32.0991
rfoot -15.9996 6.25129
rtoes -41.2752
lfemur -8.42338 -0.245157 4.39156
ltibia 20.4719
lfoot -4.87718 -1.1826
ltoes -45.7183
1650
root -4.53251 15.5009 10.1167 -521.536 -84.6532 529.389
lowerback 0.247935 2.07275 2.97017
upperback -8.86545 2.55504 -1.42318
thorax -9.29608 0.831404 -3.35761
lowerneck 12.1346 -8.24735 -30.9985
upperneck -1.11745 -17.6351 39.5317
head 4.72025 -10.5907 19.6101
rclavicle 1.11009e-014 4.74598e-015
rhumerus -40.9962 -25.0881 -63.1799
rradius 23.1007
rwrist 33.3975
rhand -10.7841 2.50394
rfingers 7.12502
rthumb 15.2285 -26.9156
lclavicle 1.11009e-014 4.74598e-015
lhumerus -43.8255 2.66576 84.1857
lradius 32.039
lwrist 20.5637
lhand -11.573 -17.6843
lfingers 7.12502
lthumb 14.4685 11.7913
rfemur -16.6886 3.13724 -6.87344
rtibia 31.0556
rfoot -14.5605 6.24503
rtoes -41.6367
lfemur -8.59049 0.603729 3.8347
ltibia 20.6511
lfoot -6.14242 -1.24684
ltoes -46.125
1651
root -4.54013 15.5133 10.3057 -521.89 -84.7501 529.842
lowerback 0.182937 2.05268 2.94595
upperback -8.85602 2.53147 -1.33625
thorax -9.25319 0.827201 -3.24673
lowerneck 12.1673 -8.2777 -30.9095
upperneck -1.36554 -17.6166 39.6065
head 4.64148 -10.5886 19.6277
rclavicle 2.96158e-014 4.47266e-016
rhumerus -41.0307 -25.2634 -63.0523
rradius 23.4683
rwrist 32.9339
rhand -10.8968 2.50074
rfingers 7.12502
rthumb 15.1199 -26.927
lclavicle 2.96158e-014 4.47266e-016
lhumerus -43.6368 2.24362 84.7192
lradius 31.6794
lwrist 20.9422
lhand -11.9284 -17.8692
lfingers 7.12502
lthumb 14.126 11.6306
rfemur -16.2817 3.6242 -7.51636
rtibia 30.0261
rfoot -13.0202 6.24588
rtoes -41.9337
lfemur -8.79283 1.37081 3.22826
ltibia 20.8202
lfoot -7.35777 -1.36265
ltoes -46.3921
1652
root -4.5456 15.5278 10.4952 -521.906 -84.867 529.957
lowerback 0.123431 2.01872 2.88517
upperback -8.84013 2.48792 -1.24677
thorax -9.20917 0.816386 -3.11144
lowerneck 12.1957 -8.30824 -30.8306
upperneck -1.62457 -17.5944 39.6821
head 4.56066 -10.5845 19.6482
rclavicle 3.39332e-015 -3.61229e-015
rhumerus -41.0613 -25.4986 -62.9029
rradius 23.8266
rwrist 32.5167
rhand -11.0813 2.49136
rfingers 7.12502
rthumb 14.9422 -26.9496
lclavicle 3.39332e-015 -3.61229e-015
lhumerus -43.4616 1.74859 85.299
lradius 31.3569
lwrist 21.5891
lhand -12.2698 -17.9546
lfingers 7.12502
lthumb 13.7969 11.5679
rfemur -15.8848 4.05813 -8.1699
rtibia 29.0182
rfoot -11.3855 6.25361
rtoes -42.1791
lfemur -9.0324 2.02737 2.58742
ltibia 20.9896
lfoot -8.52425 -1.50196
ltoes -46.612
1653
root -4.54896 15.5442 10.685 -521.854 -85.0117 530.001
lowerback 0.0766906 1.96994 2.81328
upperback -8.81818 2.42564 -1.1451
thorax -9.16804 0.797925 -2.95621
lowerneck 12.2161 -8.33888 -30.767
upperneck -1.88545 -17.5705 39.7559
head 4.48194 -10.5787 19.671
rclavicle -1.43808e-014 3.47873e-015
rhumerus -41.0749 -25.7516 -62.7487
rradius 24.174
rwrist 32.1173
rhand -11.3059 2.48001
rfingers 7.12502
rthumb 14.7258 -26.9769
lclavicle -1.43808e-014 3.47873e-015
lhumerus -43.2982 1.28352 85.8648
lradius 31.0571
lwrist 22.3386
lhand -12.5678 -17.9655
lfingers 7.12502
lthumb 13.5098 11.5763
rfemur -15.4905 4.44617 -8.8016
rtibia 28.0325
rfoot -9.65406 6.25517
rtoes -42.3605
lfemur -9.30848 2.55323 1.94214
ltibia 21.1757
lfoot -9.63995 -1.63792
ltoes -46.7926
1654
root -4.55011 15.5621 10.8746 -521.805 -85.1843 530.042
lowerback 0.054086 1.91228 2.74958
upperback -8.7975 2.35293 -1.0419
thorax -9.14285 0.773371 -2.80436
lowerneck 12.2369 -8.36995 -30.7142
upperneck -2.1385 -17.5524 39.8331
head 4.40963 -10.5765 19.6979
rclavicle 7.4917e-015 4.87022e-015
rhumerus -41.1023 -26.0514 -62.5818
rradius 24.5142
rwrist 31.7642
rhand -11.5508 2.47679
rfingers 7.12502
rthumb 14.4899 -26.9973
lclavicle 7.4917e-015 4.87022e-015
lhumerus -43.1636 0.829343 86.4007
lradius 30.7926
lwrist 23.1222
lhand -12.8188 -17.9201
lfingers 7.12502
lthumb 13.2679 11.6376
rfemur -15.1023 4.77646 -9.39993
rtibia 27.0711
rfoot -7.83343 6.248
rtoes -42.4943
lfemur -9.62545 2.94228 1.30091
ltibia 21.394
lfoot -10.6965 -1.75648
ltoes -46.9184
1655
root -4.54969 15.5814 11.0636 -522.14 -85.3968 530.461
lowerback 0.0505497 1.83968 2.7238
upperback -8.77494 2.26419 -0.922048
thorax -9.12701 0.738653 -2.65566
lowerneck 12.2416 -8.40155 -30.6763
upperneck -2.3694 -17.5378 39.9036
head 4.34871 -10.5742 19.7231
rclavicle 9.36773e-015 9.44227e-015
rhumerus -41.1292 -26.3766 -62.4033
rradius 24.8495
rwrist 31.4625
rhand -11.8023 2.49238
rfingers 7.12502
rthumb 14.2476 -26.9989
lclavicle 9.36773e-015 9.44227e-015
lhumerus -43.053 0.431219 86.8872
lradius 30.5579
lwrist 23.8833
lhand -13.0122 -17.8282
lfingers 7.12502
lthumb 13.0815 11.7415
rfemur -14.7118 5.06234 -9.92566
rtibia 26.1343
rfoot -5.93241 6.21774
rtoes -42.5514
lfemur -9.98214 3.21273 0.697605
ltibia 21.658
lfoot -11.6946 -1.84823
ltoes -47.0274
1656
root -4.54779 15.6019 11.2519 -522.995 -85.647 531.395
lowerback 0.0686515 1.75805 2.74914
upperback -8.75573 2.1677 -0.787922
thorax -9.1268 0.696406 -2.52073
lowerneck 12.2388 -8.43343 -30.6597
upperneck -2.57678 -17.5305 39.968
head 4.30016 -10.5744 19.7484
rclavicle -2.10712e-014 -5.36719e-015
rhumerus -41.1736 -26.7374 -62.2046
rradius 25.1841
rwrist 31.2238
rhand -11.9786 2.54555
rfingers 7.12502
rthumb 14.0776 -26.9576
lclavicle -2.10712e-014 -5.36719e-015
lhumerus -42.9677 0.123962 87.3048
lradius 30.3462
lwrist 24.5588
lhand -13.1277 -17.7142
lfingers 7.12502
lthumb 12.9701 11.8627
rfemur -14.3267 5.31244 -10.3739
rtibia 25.225
rfoot -3.95411 6.162
rtoes -42.4811
lfemur -10.3801 3.39816 0.133952
ltibia 21.9736
lfoot -12.6331 -1.90066
ltoes -47.1493
